<!DOCTYPE svg PUBLIC "-//W3C//DTD SVG 1.1//EN" "http://www.w3.org/Graphics/SVG/1.1/DTD/svg11.dtd">
<!-- Uploaded to: SVG Repo, www.svgrepo.com, Transformed by: SVG Repo Mixer Tools -->
<svg fill="#ffffff" height="800px" width="800px" version="1.1" id="Capa_1" xmlns="http://www.w3.org/2000/svg" xmlns:xlink="http://www.w3.org/1999/xlink" viewBox="0 0 611.999 611.999" xml:space="preserve" stroke="#ffffff">
<g id="SVGRepo_bgCarrier" stroke-width="0"/>
<g id="SVGRepo_tracerCarrier" stroke-linecap="round" stroke-linejoin="round"/>
<g id="SVGRepo_iconCarrier"> <g> <path d="M281.951,565.215c0,23.964-19.495,43.458-43.458,43.458s-43.458-19.495-43.458-43.458 c0-23.963,19.495-43.458,43.458-43.458S281.951,541.248,281.951,565.215z M508.053,521.756c-23.963,0-43.458,19.495-43.458,43.458 c0,23.964,19.495,43.458,43.458,43.458s43.458-19.495,43.458-43.458C551.511,541.251,532.016,521.756,508.053,521.756z M608.397,146.301c-2.95-3.547-7.325-5.598-11.937-5.604l-463.477-0.498L102.205,15.166c-1.715-6.952-7.95-11.84-15.107-11.84 H15.559C6.964,3.326,0,10.29,0,18.885s6.964,15.559,15.559,15.559h59.341l88.591,359.9l13.296,62.673 c5.386,25.407,28.149,43.847,54.122,43.847h299.716c8.595,0,15.559-6.964,15.559-15.559s-6.964-15.559-15.559-15.559H230.909 c-11.364,0-21.325-8.069-23.677-19.187l-9.36-44.124h355.646c7.512,0,13.95-5.371,15.304-12.761l42.923-234.622 C612.576,154.516,611.35,149.842,608.397,146.301z"/> </g> </g>
</svg>