<!DOCTYPE svg PUBLIC "-//W3C//DTD SVG 1.1//EN" "http://www.w3.org/Graphics/SVG/1.1/DTD/svg11.dtd">
<!-- Uploaded to: SVG Repo, www.svgrepo.com, Transformed by: SVG Repo Mixer Tools -->
<svg fill="#00ff88" width="800px" height="800px" viewBox="0 0 24 24" xmlns="http://www.w3.org/2000/svg" stroke="#00ff88">
<g id="SVGRepo_bgCarrier" stroke-width="0"/>
<g id="SVGRepo_tracerCarrier" stroke-linecap="round" stroke-linejoin="round"/>
<g id="SVGRepo_iconCarrier">
<path d="M18,7a5.944,5.944,0,0,1-1.2,3.6,1,1,0,1,1-1.6-1.2,4,4,0,1,0-6.4,0,1,1,0,1,1-1.6,1.2A5.944,5.944,0,0,1,6,7,6,6,0,0,1,18,7ZM12,6a1,1,0,0,0-1,1V19.586L8.707,17.293a1,1,0,1,0-1.414,1.414l4,4a1,1,0,0,0,1.414,0l4-4a1,1,0,0,0-1.414-1.414L13,19.586V7A1,1,0,0,0,12,6Z"/>
</g>
</svg>