<!DOCTYPE svg PUBLIC "-//W3C//DTD SVG 1.1//EN" "http://www.w3.org/Graphics/SVG/1.1/DTD/svg11.dtd">
<!-- Uploaded to: SVG Repo, www.svgrepo.com, Transformed by: SVG Repo Mixer Tools -->
<svg fill="#00ff00" height="800px" width="800px" version="1.1" id="Capa_1" xmlns="http://www.w3.org/2000/svg" xmlns:xlink="http://www.w3.org/1999/xlink" viewBox="0 0 244.112 244.112" xml:space="preserve">
<g id="SVGRepo_bgCarrier" stroke-width="0"/>
<g id="SVGRepo_tracerCarrier" stroke-linecap="round" stroke-linejoin="round"/>
<g id="SVGRepo_iconCarrier"> <g> <path d="M39.798,96.863c1.535,0,3.071-0.586,4.242-1.758l25.831-25.831c2.344-2.343,2.344-6.142,0-8.484 c-2.342-2.344-6.559-2.344-8.901,0L44.802,76.541V6.112c0-3.313-2.687-6-6-6s-6,2.687-6,6v70.103L18.456,61.453 c-2.342-2.344-5.934-2.344-8.276,0c-2.344,2.343-2.24,6.142,0.104,8.484l25.22,25.168C36.675,96.277,38.263,96.863,39.798,96.863z"/> <path d="M234.754,128.843c-3.973-23.738-20.508-26.75-28.641-26.75c-0.268,0-0.525,0.004-0.773,0.01 c-0.056,0.001-0.112,0.002-0.168,0.002c-2.22,0-4.453-1.036-5.5-2.992c-5.442-10.165-14.302-11.735-20.921-11.735 c-0.354,0-0.698,0.004-1.038,0.012c-0.04,0.001-0.446,0.002-0.486,0.002c-2.788,0-5.425-2.256-5.425-5.06V16.836 C171.802,8.158,165.515,0,155.533,0c-9.209,0-16.731,7-16.731,16.11V81.77c0,3.235-1.969,6.343-5.203,6.343 c-0.032,0-0.064,0-0.097,0c-3.174,0-5.759-2.783-5.757-5.97l0.015-53.502c0.005-10.518-8.134-15.83-16.272-15.831 c-8.133,0-16.264,5.227-16.27,15.737c0,0-0.04,101.476-0.037,105.62c0.002,3.695-2.989,5.97-6.027,5.97 c-1.858,0-3.734-0.856-4.953-2.761l-14.775-23.092c-3.341-5.521-8.199-7.81-13.012-7.811 c-10.809-0.001-21.393,11.535-14.099,23.922c0.084,0.143,0.164,0.291,0.235,0.44l59.906,109.421c1.095,2.312,3.423,3.8,5.981,3.801 l82.674,0.055c0.001,0,0.003,0,0.004,0c3.162,0,5.882-2.249,6.496-5.351l8.26-24.719c0.165-0.838,0.498-1.645,0.968-2.358 C229.977,176.519,238.609,151.884,234.754,128.843z"/> </g> </g>
</svg>